<svg xmlns="http://www.w3.org/2000/svg" version="1.1" xmlns:xlink="http://www.w3.org/1999/xlink" xmlns:svgjs="http://svgjs.dev/svgjs" width="2000" height="924" viewBox="0 0 2000 924"><g transform="matrix(1,0,0,1,-1.2121212121212466,-1.5159477317359915)"><svg viewBox="0 0 396 183" data-background-color="#001f3f" preserveAspectRatio="xMidYMid meet" height="924" width="2000" xmlns="http://www.w3.org/2000/svg" xmlns:xlink="http://www.w3.org/1999/xlink"><g id="tight-bounds" transform="matrix(1,0,0,1,0.2400000000000091,0.30023640141524766)"><svg viewBox="0 0 395.52 182.3995271971695" height="182.3995271971695" width="395.52"><g><svg viewBox="0 0 395.52 182.3995271971695" height="182.3995271971695" width="395.52"><g transform="matrix(1,0,0,1,0,112.73022531396614)"><svg viewBox="0 0 395.52 69.66930188320335" height="69.66930188320335" width="395.52"><g id="textblocktransform"><svg viewBox="0 0 395.52 69.66930188320335" height="69.66930188320335" width="395.52" id="textblock"><g><svg viewBox="0 0 395.52 69.66930188320335" height="69.66930188320335" width="395.52"><g transform="matrix(1,0,0,1,0,0)"><svg width="395.52" viewBox="1.7 -35.7 262.82 46.300000000000004" height="69.66930188320335" data-palette-color="#ffffff"><path d="M22.9-9.95L22.9-6.75 1.7-15.1 1.7-18.1 22.9-26.45 22.9-23.25 12.1-19.2 5.45-16.7 5.45-16.5 12.1-14 22.9-9.95ZM41.4 0.6L41.4 0.6Q37.3 0.6 34.1-1.43 30.9-3.45 29.05-7.28 27.2-11.1 27.2-16.4L27.2-16.4Q27.2-20.4 28.27-23.53 29.35-26.65 31.3-28.9 33.25-31.15 35.9-32.3 38.55-33.45 41.65-33.45L41.65-33.45Q44.65-33.45 46.92-32.23 49.2-31 50.55-29.45L50.55-29.45 48.5-27Q47.2-28.45 45.52-29.33 43.85-30.2 41.7-30.2L41.7-30.2Q38.5-30.2 36.1-28.53 33.7-26.85 32.37-23.78 31.05-20.7 31.05-16.5L31.05-16.5Q31.05-12.25 32.32-9.15 33.6-6.05 35.97-4.35 38.35-2.65 41.55-2.65L41.55-2.65Q43.95-2.65 45.85-3.65 47.75-4.65 49.35-6.45L49.35-6.45 51.4-4.15Q49.5-1.9 47.05-0.65 44.6 0.6 41.4 0.6ZM60.9 0L57.3 0 57.3-24.25 60.9-24.25 60.9 0ZM59.15-29.45L59.15-29.45Q58.09-29.45 57.37-30.15 56.65-30.85 56.65-32L56.65-32Q56.65-33.05 57.37-33.75 58.09-34.45 59.15-34.45L59.15-34.45Q60.25-34.45 60.95-33.75 61.65-33.05 61.65-32L61.65-32Q61.65-30.85 60.95-30.15 60.25-29.45 59.15-29.45ZM72.99 0L69.39 0 69.39-24.25 72.39-24.25 72.69-20.65 72.84-20.65Q74.59-22.45 76.57-23.65 78.54-24.85 80.99-24.85L80.99-24.85Q84.84-24.85 86.62-22.45 88.39-20.05 88.39-15.4L88.39-15.4 88.39 0 84.74 0 84.74-14.95Q84.74-18.45 83.62-20.05 82.49-21.65 79.94-21.65L79.94-21.65Q77.99-21.65 76.47-20.68 74.94-19.7 72.99-17.75L72.99-17.75 72.99 0ZM104.69 0.6L104.69 0.6Q100.19 0.6 97.47-2.73 94.74-6.05 94.74-12.1L94.74-12.1Q94.74-16 96.22-18.85 97.69-21.7 100.09-23.28 102.49-24.85 105.29-24.85L105.29-24.85Q107.44-24.85 109.02-24.1 110.59-23.35 112.19-22L112.19-22 112.04-26.2 112.04-35.7 115.64-35.7 115.64 0 112.64 0 112.34-2.95 112.19-2.95Q110.79-1.5 108.87-0.45 106.94 0.6 104.69 0.6ZM105.49-2.5L105.49-2.5Q107.24-2.5 108.84-3.38 110.44-4.25 112.04-5.95L112.04-5.95 112.04-19.1Q110.39-20.55 108.92-21.15 107.44-21.75 105.84-21.75L105.84-21.75Q103.79-21.75 102.12-20.53 100.44-19.3 99.47-17.13 98.49-14.95 98.49-12.1L98.49-12.1Q98.49-7.65 100.32-5.08 102.14-2.5 105.49-2.5ZM124.19 10.6L124.19 10.6Q123.39 10.6 122.69 10.45 121.99 10.3 121.44 10.1L121.44 10.1 122.14 7.15Q122.54 7.3 123.06 7.43 123.59 7.55 124.04 7.55L124.04 7.55Q126.14 7.55 127.54 5.98 128.94 4.4 129.69 2L129.69 2 130.29 0.15 120.49-24.25 124.24-24.25 129.44-10.35Q129.99-8.8 130.64-7.03 131.29-5.25 131.84-3.55L131.84-3.55 132.04-3.55Q132.59-5.2 133.11-6.98 133.64-8.75 134.14-10.35L134.14-10.35 138.69-24.25 142.24-24.25 133.04 2.25Q132.19 4.55 131.04 6.45 129.89 8.35 128.21 9.47 126.54 10.6 124.19 10.6ZM175.63 0L157.43 0 157.43-32.85 161.13-32.85 161.13-3.15 175.63-3.15 175.63 0ZM186.63 0.6L186.63 0.6Q184.63 0.6 183.03-0.2 181.43-1 180.48-2.53 179.53-4.05 179.53-6.2L179.53-6.2Q179.53-10.2 183.16-12.33 186.78-14.45 194.63-15.3L194.63-15.3Q194.63-16.9 194.21-18.43 193.78-19.95 192.66-20.88 191.53-21.8 189.43-21.8L189.43-21.8Q187.23-21.8 185.36-20.95 183.48-20.1 182.08-19.15L182.08-19.15 180.63-21.65Q181.68-22.35 183.13-23.1 184.58-23.85 186.33-24.35 188.08-24.85 190.03-24.85L190.03-24.85Q192.93-24.85 194.76-23.6 196.58-22.35 197.41-20.15 198.23-17.95 198.23-15L198.23-15 198.23 0 195.23 0 194.93-2.95 194.78-2.95Q193.03-1.5 190.98-0.45 188.93 0.6 186.63 0.6ZM187.58-2.35L187.58-2.35Q189.43-2.35 191.08-3.23 192.73-4.1 194.63-5.75L194.63-5.75 194.63-12.85Q190.33-12.35 187.83-11.48 185.33-10.6 184.23-9.35 183.13-8.1 183.13-6.45L183.13-6.45Q183.13-4.3 184.46-3.33 185.78-2.35 187.58-2.35ZM209.78 0L206.18 0 206.18-24.25 209.78-24.25 209.78 0ZM208.03-29.45L208.03-29.45Q206.98-29.45 206.25-30.15 205.53-30.85 205.53-32L205.53-32Q205.53-33.05 206.25-33.75 206.98-34.45 208.03-34.45L208.03-34.45Q209.13-34.45 209.83-33.75 210.53-33.05 210.53-32L210.53-32Q210.53-30.85 209.83-30.15 209.13-29.45 208.03-29.45ZM227.22 8L224.52 8 238.37-35.5 241.07-35.5 227.22 8ZM264.52-15.1L243.32-6.75 243.32-9.95 254.17-14 260.82-16.5 260.82-16.7 254.17-19.2 243.32-23.25 243.32-26.45 264.52-18.1 264.52-15.1Z" opacity="1" transform="matrix(1,0,0,1,0,0)" fill="#ffffff" class="wordmark-text-0" data-fill-palette-color="primary" id="text-0"></path></svg></g></svg></g></svg></g></svg></g><g transform="matrix(1,0,0,1,113.3449403154071,0)"><svg viewBox="0 0 168.83011936918578 96.28297520258704" height="96.28297520258704" width="168.83011936918578"><g><svg xmlns="http://www.w3.org/2000/svg" xmlns:xlink="http://www.w3.org/1999/xlink" version="1.1" x="8" y="0" viewBox="0 17 100 63" enable-background="new 0 0 100 100" xml:space="preserve" height="96.28297520258704" width="152.83011936918578" class="icon-icon-0" data-fill-palette-color="accent" id="icon-0"><path fill-rule="evenodd" clip-rule="evenodd" d="M0 17V80H100V17zM91 70H9V39H91z" fill="#ffffff" data-fill-palette-color="accent"></path><path fill-rule="evenodd" clip-rule="evenodd" d="M59.375 53.643V56.768H81.25V53.643z" fill="#ffffff" data-fill-palette-color="accent"></path><path fill-rule="evenodd" clip-rule="evenodd" d="M21.875 66.143V61.282L26.563 55.206 21.875 49.13V44.269L30 55.205z" fill="#ffffff" data-fill-palette-color="accent"></path></svg></g></svg></g><g><rect width="113.3449403154071" height="6.282849542546821" y="89.00012566004021" x="282.1750596845929" fill="#ffffff" data-fill-palette-color="accent"></rect><rect width="113.3449403154071" height="6.282849542546821" y="89.00012566004021" x="0" fill="#ffffff" data-fill-palette-color="accent"></rect><rect width="113.3449403154071" height="6.282849542546821" y="76.43442657494657" x="282.1750596845929" fill="#ffffff" data-fill-palette-color="accent"></rect><rect width="113.3449403154071" height="6.282849542546821" y="76.43442657494657" x="0" fill="#ffffff" data-fill-palette-color="accent"></rect></g></svg></g><defs></defs></svg><rect width="395.52" height="182.3995271971695" fill="none" stroke="none" visibility="hidden"></rect></g></svg></g></svg>